# xmcd CD database file
#
# Track frame offsets:
#	150
#	16660
#	37469
#	49836
#	73346
#	87503
#	109127
#	134478
#	146488
#	165577
#	183939
#	206156
#	228947
#
# Disc length: 3232 seconds
#
# Revision: 0
# Processed by: cddbd v1.5.1PL0 Copyright (c) Steve Scherf et al.
# Submitted via: CDex 1.51
#
DISCID=bf0c9e0d
DTITLE=魚谷のぶまさTRIO - とびだせ！JACK
DYEAR=2004
DGENRE=Jazz
TTITLE0=LET'S FALL IN LOVE
TTITLE1=TEA FOR TWO
TTITLE2=THE SWEETEST SOUND
TTITLE3=THIS GUY
TTITLE4=LOVE ME OR LEAVE ME
TTITLE5=GOLDEN EARRINGS
TTITLE6=BLUE MOON
TTITLE7=MIDGETS
TTITLE8=ONLY TRUST YOUR HEART
TTITLE9=JUST YOU,JUST ME
TTITLE10=TOO CLOSE FOR CONFORT
TTITLE11=I'LL SEE YOU IN MY DREAM
TTITLE12=HIT THE ROAD JACK!
EXTD=YEAR: 2004
EXTT0=
EXTT1=
EXTT2=
EXTT3=
EXTT4=
EXTT5=
EXTT6=
EXTT7=
EXTT8=
EXTT9=
EXTT10=
EXTT11=
EXTT12=
PLAYORDER=
